# xmcd
#
# Track frame offsets:
#	150
#	35362
#	61485
#	104073
#	118357
#	153996
#
# Disc length: 2323 seconds
#
# Revision: 1
# Processed by: cddbd v1.5.2PL0 Copyright (c) Steve Scherf et al.
# Submitted via: audiograbber 1.83.01
#
DISCID=52091106
DTITLE=Grateful Dead - 80-05-07 Barton Hall, Cornell Uni, Ithaca NY
DYEAR=1900
DGENRE=
TTITLE0=Space
TTITLE1=Saint Of Circumstance
TTITLE2=Black Peter
TTITLE3=Playing In The Band
TTITLE4=Good Lovin'
TTITLE5=Alabama Getaway
EXTD=
EXTT0=
EXTT1=
EXTT2=
EXTT3=
EXTT4=
EXTT5=
PLAYORDER=
